<svg width="498" height="498" viewBox="0 0 498 498" fill="none" xmlns="http://www.w3.org/2000/svg">
<rect width="482.154" height="489.454" fill="black" fill-opacity="0" transform="translate(8 4)"/>
<rect width="687.03" height="687.03" fill="black" fill-opacity="0" transform="translate(-94.4375 -94.7881)"/>
<rect width="482.154" height="489.454" fill="black" fill-opacity="0" transform="translate(-94.4375 246.146) rotate(-45)"/>
<path d="M212.272 232.627C225.849 232.627 233.627 221.455 233.556 212.758L233.556 90.711C233.556 78.973 224.717 70.1342 212.979 70.1342L90.9329 70.1342C78.6292 70.1342 69.6489 79.2559 69.6489 90.0039L69.6489 212.051C69.6489 223.789 78.4878 232.627 90.2257 232.627L212.272 232.627ZM110.803 110.51L192.473 111.288V192.181L111.58 192.181L110.803 110.51Z" fill="#C142A0"/>
<path d="M285.952 265.012C273.649 265.012 264.668 274.134 264.668 284.882L264.668 406.928C264.668 418.666 273.507 427.505 285.245 427.505L407.292 427.505C420.868 427.505 428.647 416.333 428.576 407.636L428.576 285.589C428.576 273.851 419.737 265.012 407.999 265.012L285.952 265.012ZM387.493 387.2L306.6 387.2L305.822 305.529L387.493 306.307V387.2Z" fill="#C142A0"/>
<path d="M405.313 71.9724L283.196 71.9017C271.458 71.9017 262.619 80.7405 262.619 92.4785L262.619 214.525C262.619 228.102 273.791 235.88 282.489 235.809L404.535 235.809C416.273 235.809 425.112 226.97 425.112 215.232L425.112 93.1856C425.254 81.0233 416.061 71.9724 405.313 71.9724ZM384.029 194.797L303.136 194.797L303.136 113.904L384.807 113.126L384.029 194.797Z" fill="#C142A0"/>
<path d="M215.526 261.759L93.4087 261.689C81.6707 261.689 72.8318 270.528 72.8318 282.266L72.8318 404.312C72.8318 417.889 84.0041 425.667 92.7016 425.596L214.748 425.596C226.486 425.596 235.325 416.757 235.325 405.019L235.325 282.973C235.466 270.81 226.274 261.759 215.526 261.759ZM194.242 384.584L113.349 384.584L113.349 303.691L195.02 302.913L194.242 384.584Z" fill="#C142A0"/>
</svg>
