<svg width="40" height="40" viewBox="0 0 40 40" fill="none" xmlns="http://www.w3.org/2000/svg">
<rect width="40" height="40" fill="black" fill-opacity="0"/>
<path d="M10.1119 5.31601L11.9801 26.538C12.0026 26.8852 12.2118 27.1724 12.4498 27.3517L21.4985 33.7269C21.8957 33.9489 22.3507 33.9552 22.6892 33.7598L30.1357 29.4605C30.7071 29.135 30.7112 28.5858 30.6888 28.4643L29.6934 17.4352C29.6709 17.088 29.4617 16.8008 29.2236 16.6215L11.8694 4.30132C11.3991 3.9002 10.0189 4.10259 10.1119 5.31601ZM27.6378 18.0839L28.4932 27.931L22.1923 31.5688L14.1059 25.8531L12.6856 9.96175L18.3972 19.8996C18.3121 20.0529 18.2462 20.2168 18.1994 20.3913C17.8982 21.5156 18.5634 22.6677 19.6876 22.969C20.8119 23.2702 21.9641 22.605 22.2653 21.4808C22.5665 20.3565 21.9014 19.2044 20.7771 18.9031C20.6077 18.8577 20.4328 18.8329 20.2678 18.8327L14.6249 8.94625L27.6378 18.0839Z" fill="#EA4C89"/>
</svg>
