<svg width="412" height="412" viewBox="0 0 412 412" fill="none" xmlns="http://www.w3.org/2000/svg">
<rect width="412" height="412" fill="black" fill-opacity="0"/>
<path d="M286.558 204.773C286.252 186.215 279.64 169.187 268.76 155.702C265.939 159.351 252.337 175.475 224.137 187.094C225.944 190.813 227.686 194.588 229.304 198.393C229.857 199.681 230.385 200.957 230.911 202.238C233.707 201.893 236.5 201.643 239.264 201.472C242.666 201.262 246.022 201.171 249.283 201.171C267.605 201.171 282.938 204.029 286.558 204.773Z" fill="#EA4C89"/>
<path d="M259.089 145.64C244.898 133.203 226.32 125.652 205.995 125.652C199.751 125.652 193.672 126.372 187.829 127.725C191.107 132.148 204.883 151.199 217.469 174.205C244.66 163.932 256.842 148.704 259.089 145.64Z" fill="#EA4C89"/>
<path d="M200.868 179.363C187.957 156.542 174.16 137.286 171.381 133.46C149.187 144.051 132.576 164.48 127.241 189.064H128.03C135.456 189.064 166.221 188.47 200.868 179.363Z" fill="#EA4C89"/>
<path d="M125.445 204.141C125.424 204.802 125.412 205.466 125.412 206.129C125.412 226.562 133.084 245.231 145.705 259.452C149.111 253.823 171.248 219.386 211.525 206.377C212.41 206.089 213.301 205.829 214.205 205.57C212.282 201.263 210.215 196.952 208.044 192.706C172.272 203.321 137.56 204.147 127.559 204.147C126.637 204.147 125.926 204.147 125.445 204.141Z" fill="#EA4C89"/>
<path d="M156.846 269.845C170.456 280.34 187.513 286.6 205.995 286.6C217.028 286.6 227.547 284.375 237.125 280.348C235.84 272.853 231.152 248.67 220.084 219.857L219.996 219.886C175.858 235.248 159.15 265.331 156.846 269.845Z" fill="#EA4C89"/>
<path d="M236.194 215.907C246.217 243.55 250.56 266.214 251.638 272.414C269.285 260.256 281.851 241.261 285.491 219.311C282.428 218.375 269.255 214.688 252.412 214.688C247.284 214.688 241.815 215.033 236.194 215.907Z" fill="#EA4C89"/>
<path fill-rule="evenodd" clip-rule="evenodd" d="M356 206C356 288.843 288.844 356 206 356C123.156 356 56 288.843 56 206C56 123.157 123.156 56 206 56C288.844 56 356 123.157 356 206ZM110.615 206.003C110.615 153.477 153.404 110.74 205.995 110.74C258.591 110.74 301.381 153.477 301.381 206.003C301.381 258.532 258.591 301.263 205.995 301.263C153.404 301.263 110.615 258.529 110.615 206.003Z" fill="#EA4C89"/>
</svg>
