<svg width="412" height="412" viewBox="0 0 412 412" fill="none" xmlns="http://www.w3.org/2000/svg">
<rect width="412" height="412" fill="black" fill-opacity="0"/>
<path fill-rule="evenodd" clip-rule="evenodd" d="M356 206C356 288.843 288.843 356 206 356C123.157 356 56 288.843 56 206C56 123.157 123.157 56 206 56C288.843 56 356 123.157 356 206ZM212.108 271.789H200.334C200.334 271.789 174.358 273.353 151.482 249.536C126.534 223.56 104.502 172.013 104.502 172.013C104.502 172.013 103.232 168.633 104.611 166.999C106.163 165.162 110.387 165.045 110.387 165.045L138.53 164.861C138.53 164.861 141.183 165.304 143.081 166.697C144.644 167.847 145.522 169.997 145.522 169.997C145.522 169.997 150.07 181.499 156.094 191.906C167.851 212.223 173.328 216.666 177.32 214.49C183.136 211.316 181.392 185.77 181.392 185.77C181.392 185.77 181.5 176.497 178.465 172.368C176.114 169.167 171.68 168.235 169.723 167.972C168.14 167.761 170.74 164.085 174.109 162.435C179.173 159.953 188.118 159.812 198.684 159.921C206.917 160.004 209.287 160.517 212.506 161.296C219.974 163.099 219.743 168.877 219.24 181.344C219.09 185.071 218.915 189.394 218.915 194.388C218.915 195.511 218.882 196.709 218.848 197.941C218.674 204.325 218.474 211.637 222.678 214.354C224.832 215.745 230.106 214.562 243.294 192.169C249.544 181.556 254.232 169.077 254.232 169.077C254.232 169.077 255.256 166.852 256.847 165.897C258.476 164.925 260.67 165.224 260.67 165.224L290.287 165.039C290.287 165.039 299.185 163.977 300.626 167.994C302.138 172.21 297.301 182.055 285.201 198.182C273.71 213.497 268.126 219.126 268.651 224.111C269.034 227.747 272.663 231.04 279.618 237.494C294.195 251.024 298.082 258.129 299.005 259.819L299.175 260.122C305.699 270.942 291.939 271.789 291.939 271.789L265.636 272.155C265.636 272.155 259.983 273.275 252.545 268.166C248.655 265.495 244.851 261.135 241.227 256.981C235.688 250.631 230.568 244.761 226.199 246.147C218.868 248.473 219.097 264.27 219.097 264.27C219.097 264.27 219.151 267.644 217.48 269.442C215.664 271.399 212.108 271.789 212.108 271.789Z" fill="#00B6E3"/>
</svg>
