<svg width="412" height="412" viewBox="0 0 412 412" fill="none" xmlns="http://www.w3.org/2000/svg">
<rect width="412" height="412" fill="black" fill-opacity="0"/>
<path fill-rule="evenodd" clip-rule="evenodd" d="M356 206C356 288.843 288.843 356 206 356C123.157 356 56 288.843 56 206C56 123.157 123.157 56 206 56C288.843 56 356 123.157 356 206ZM216.945 211.873H243.712L247.255 177.443H216.948V157.162C216.948 149.555 221.975 147.769 225.549 147.769H247.346V114.319L217.306 114.193C183.969 114.193 176.393 139.165 176.393 155.111V177.411H157.107V211.873H176.393V309.93H216.945V211.873Z" fill="#3A8BBB"/>
</svg>
