<svg width="412" height="412" viewBox="0 0 412 412" fill="none" xmlns="http://www.w3.org/2000/svg">
<rect width="412" height="412" fill="black" fill-opacity="0"/>
<rect width="300" height="300" fill="black" fill-opacity="0" transform="translate(56 56)"/>
<path d="M250.709 135.814H161.295C147.024 135.814 135.413 147.425 135.413 161.697V251.111C135.413 265.383 147.024 276.998 161.295 276.998H250.709C264.981 276.998 276.596 265.386 276.596 251.111V161.697C276.596 147.425 264.985 135.814 250.709 135.814ZM206.003 252.883C180.377 252.883 159.527 232.033 159.527 206.404C159.527 180.778 180.377 159.929 206.003 159.929C231.631 159.929 252.481 180.778 252.481 206.404C252.481 232.03 231.628 252.883 206.003 252.883ZM253.975 169.539C247.909 169.539 242.975 164.605 242.975 158.542C242.975 152.479 247.909 147.546 253.975 147.546C260.038 147.546 264.971 152.479 264.971 158.542C264.971 164.605 260.038 169.539 253.975 169.539Z" fill="#F46363"/>
<path d="M179.163 206.402C179.163 191.609 191.209 179.57 206.001 179.57C220.799 179.57 232.838 191.612 232.838 206.402C232.838 221.202 220.802 233.244 206.001 233.244C191.209 233.244 179.163 221.202 179.163 206.402Z" fill="#F46363"/>
<path fill-rule="evenodd" clip-rule="evenodd" d="M56 206C56 123.161 123.161 56 206 56C288.839 56 356 123.161 356 206C356 288.839 288.839 356 206 356C123.161 356 56 288.839 56 206ZM250.706 296.633C275.81 296.633 296.229 276.215 296.229 251.111V161.698C296.229 136.596 275.81 116.175 250.706 116.175H161.294C136.192 116.175 115.771 136.596 115.771 161.698V251.111C115.771 276.215 136.192 296.633 161.294 296.633H250.706Z" fill="#F46363"/>
</svg>
